<svg xmlns="http://www.w3.org/2000/svg" width="36.456" height="36.456" viewBox="0 0 36.456 36.456">
  <g id="Group_783" data-name="Group 783" transform="translate(-171 -2632)">
    <path id="Path_264" data-name="Path 264" d="M18.228,0A18.228,18.228,0,1,1,0,18.228,18.227,18.227,0,0,1,18.228,0" transform="translate(171 2632)" fill="#c1c1c1"/>
    <path id="Path_265" data-name="Path 265" d="M12.462,24.806a.956.956,0,0,1-.583-.2L5.388,19.633a.959.959,0,0,1,1.167-1.522l5.422,4.156,5.835-17.5a.96.96,0,1,1,1.821.606L13.373,24.15a.959.959,0,0,1-.631.616.989.989,0,0,1-.28.04" transform="translate(175.605 2635.772)" fill="#fff"/>
  </g>
</svg>
